<svg width="151" height="34" viewBox="0 0 151 34" fill="none" xmlns="http://www.w3.org/2000/svg">
<path d="M0 33.4454H5.82122V22.3146H11.9592C16.3549 22.3146 16.5925 23.8198 16.5925 27.7017C16.5925 30.633 16.8301 32.0986 17.2261 33.4454H23.7997V32.6928C22.5325 32.2175 22.5325 31.1876 22.5325 27.0284C22.5325 21.7204 21.2653 20.8489 18.9289 19.819C21.7405 18.8683 23.3245 16.1748 23.3245 13.0454C23.3245 10.5895 21.9385 5.00427 14.3749 5.00427H0V33.4454ZM5.82122 17.5216V9.91612H13.2264C16.7113 9.91612 17.3845 12.1344 17.3845 13.6396C17.3845 16.452 15.8797 17.5216 12.7908 17.5216H5.82122Z" fill="white"/>
<path d="M47.6844 22.9087C47.6844 15.3033 42.576 11.8175 36.9132 11.8175C31.2504 11.8175 26.142 15.3033 26.142 22.9087C26.142 30.5142 31.2504 34 36.9132 34C42.576 34 47.6844 30.5142 47.6844 22.9087ZM41.982 22.9087C41.982 25.6023 41.19 29.3258 36.9132 29.3258C32.6364 29.3258 31.8444 25.6023 31.8444 22.9087C31.8444 20.2151 32.6364 16.4916 36.9132 16.4916C41.19 16.4916 41.982 20.2151 41.982 22.9087Z" fill="white"/>
<path d="M70.8239 5.00427H65.2799V15.1052H65.2007C64.3295 13.7584 62.6663 11.8175 59.1023 11.8175C54.4691 11.8175 50.3507 15.3825 50.3507 22.6711C50.3507 28.4544 52.9643 34 59.2211 34C61.5179 34 63.9731 33.1682 65.3195 30.7915H65.3987V33.4454H70.8239V5.00427ZM56.0531 23.0672C56.0531 19.7398 57.2411 16.6105 60.7655 16.6105C64.5671 16.6105 65.5175 20.0171 65.5175 23.3841C65.5175 26.5134 64.1315 29.4447 60.6071 29.4447C57.0431 29.4447 56.0531 25.5627 56.0531 23.0672Z" fill="white"/>
<path d="M88.1818 27.266C87.7462 28.7713 86.1622 29.5635 84.6178 29.5635C80.143 29.5635 79.8261 25.9984 79.6677 24.414H94.1218V23.4237C94.1218 13.7981 88.3798 11.8175 84.2218 11.8175C74.9949 11.8175 74.1237 19.9379 74.1237 22.473C74.1237 31.148 78.6777 34 84.6178 34C88.2214 34 92.419 32.3363 93.8842 27.266H88.1818ZM79.8262 20.8093C80.143 18.0365 81.529 16.3728 84.1426 16.3728C85.9246 16.3728 88.1026 17.4027 88.4194 20.8093H79.8262Z" fill="white"/>
<path d="M97.9497 12.372V33.4454H103.494V12.372H97.9497ZM103.494 4.72699H97.9497V9.8765H103.494V4.72699Z" fill="white"/>
<path d="M129.128 22.9087C129.128 15.3033 124.019 11.8175 118.356 11.8175C112.694 11.8175 107.585 15.3033 107.585 22.9087C107.585 30.5142 112.694 34 118.356 34C124.019 34 129.128 30.5142 129.128 22.9087ZM123.425 22.9087C123.425 25.6023 122.633 29.3258 118.356 29.3258C114.08 29.3258 113.288 25.6023 113.288 22.9087C113.288 20.2151 114.08 16.4916 118.356 16.4916C122.633 16.4916 123.425 20.2151 123.425 22.9087Z" fill="white"/>
<path d="M150.366 18.7891C149.931 12.8474 145.02 11.8175 140.902 11.8175C134.328 11.8175 132.388 15.7786 132.388 18.8683C132.388 26.7511 145.456 24.0971 145.456 27.6225C145.456 28.4148 144.783 29.8012 141.932 29.8012C138.447 29.8012 137.338 28.494 137.338 26.7115H131.636C131.794 32.3363 136.982 34 141.773 34C145.06 34 151 32.8909 151 26.7511C151 18.9872 137.813 21.4035 137.813 18.0761C137.813 17.165 138.209 16.0163 141.219 16.0163C144.228 16.0163 144.704 17.4423 144.941 18.7891H150.366Z" fill="white"/>
<path d="M28.51 4.54214C28.51 5.32557 28.906 6.65476 31.2116 6.65476C31.766 6.65476 33.7021 6.48751 33.7021 4.58615C33.7021 3.45062 32.9101 3.09851 32.0476 2.88725L30.5076 2.50874C30.2436 2.44712 29.8388 2.34149 29.8388 1.84854C29.8388 1.27638 30.4372 1.09152 30.9388 1.09152C32.0917 1.09152 32.1973 1.76052 32.2325 2.0422H33.4997C33.4909 1.26757 32.9717 0 31.0356 0C28.9852 0 28.6068 1.24117 28.6068 1.94537C28.6068 3.33618 29.5924 3.56505 30.6132 3.80272L31.2908 3.96117C31.9597 4.11961 32.4349 4.25165 32.4349 4.7446C32.4349 5.41359 31.7396 5.56324 31.1148 5.56324C29.962 5.56324 29.786 4.89424 29.7772 4.54214H28.51Z" fill="white"/>
<path d="M34.6436 1.80453V6.48751H35.8756V1.80453H34.6436ZM35.8756 0.105631H34.6436V1.24997H35.8756V0.105631Z" fill="white"/>
<path d="M38.4392 0.536958H37.2072V1.80453H36.5736V2.68479H37.2072V5.52803C37.2072 6.13541 37.4008 6.54032 38.4656 6.54032H38.624C38.8176 6.54032 39.0112 6.53152 39.2048 6.52272V5.58964C39.1168 5.59845 39.0288 5.60725 38.9496 5.60725C38.448 5.60725 38.4392 5.50162 38.4392 5.22874V2.68479H39.2048V1.80453H38.4392V0.536958Z" fill="white"/>
<path d="M42.6136 5.1143C42.5168 5.4488 42.1648 5.62486 41.8216 5.62486C40.8272 5.62486 40.7568 4.83262 40.7216 4.48052H43.9336V4.26045C43.9336 2.12142 42.6576 1.68129 41.7336 1.68129C39.6832 1.68129 39.4896 3.48583 39.4896 4.04919C39.4896 5.97696 40.5016 6.61074 41.8216 6.61074C42.6224 6.61074 43.5552 6.24104 43.8808 5.1143H42.6136ZM40.7568 3.67948C40.8272 3.0633 41.1352 2.69359 41.716 2.69359C42.112 2.69359 42.596 2.92246 42.6664 3.67948H40.7568Z" fill="white"/>
<path d="M51.4751 0.167249H50.2431V2.41191H50.2255C50.0319 2.11262 49.6623 1.68129 48.8703 1.68129C47.8407 1.68129 46.9255 2.47353 46.9255 4.0932C46.9255 5.37838 47.5063 6.61074 48.8967 6.61074C49.4071 6.61074 49.9527 6.42589 50.2519 5.89774H50.2695V6.48751H51.4751V0.167249ZM48.1927 4.18123C48.1927 3.44181 48.4567 2.74641 49.2399 2.74641C50.0847 2.74641 50.2959 3.50343 50.2959 4.25165C50.2959 4.94706 49.9879 5.59845 49.2047 5.59845C48.4127 5.59845 48.1927 4.73579 48.1927 4.18123Z" fill="white"/>
<path d="M57.0924 4.14602C57.0924 2.45592 55.9572 1.68129 54.6988 1.68129C53.4404 1.68129 52.3052 2.45592 52.3052 4.14602C52.3052 5.83612 53.4404 6.61074 54.6988 6.61074C55.9572 6.61074 57.0924 5.83612 57.0924 4.14602ZM55.8252 4.14602C55.8252 4.7446 55.6492 5.57204 54.6988 5.57204C53.7484 5.57204 53.5724 4.7446 53.5724 4.14602C53.5724 3.54744 53.7484 2.72 54.6988 2.72C55.6492 2.72 55.8252 3.54744 55.8252 4.14602Z" fill="white"/>
<path d="M61.8121 3.23055C61.7153 1.91016 60.6241 1.68129 59.7089 1.68129C58.2481 1.68129 57.8169 2.56155 57.8169 3.24816C57.8169 4.99987 60.7209 4.4101 60.7209 5.19353C60.7209 5.36958 60.5713 5.67767 59.9377 5.67767C59.1633 5.67767 58.9169 5.38719 58.9169 4.99107H57.6497C57.6849 6.24104 58.8377 6.61074 59.9025 6.61074C60.6329 6.61074 61.9529 6.36427 61.9529 4.99987C61.9529 3.27456 59.0225 3.81152 59.0225 3.0721C59.0225 2.86964 59.1105 2.61437 59.7793 2.61437C60.4481 2.61437 60.5537 2.93126 60.6065 3.23055H61.8121Z" fill="white"/>
</svg>
